# Blender 5.2.2 LTS
# www.blender.org
mtllib fork.mtl
o fork
v 0.035000 -0.040000 -0.000000
v 0.000000 -0.040000 -0.000000
v 0.035000 -0.125750 -0.000000
v 0.035000 -0.040000 0.030000
v -0.000000 -0.040000 0.030000
v 0.035000 -0.039877 0.031564
v 0.035000 -0.039511 0.033090
v -0.000000 -0.039877 0.031564
v -0.000000 -0.039511 0.033090
v -0.000000 -0.038910 0.034540
v -0.000000 -0.038090 0.035878
v 0.035000 -0.038910 0.034540
v 0.035000 -0.038090 0.035878
v 0.035000 -0.037071 0.037071
v 0.035000 -0.035878 0.038090
v -0.000000 -0.037071 0.037071
v -0.000000 -0.035878 0.038090
v -0.000000 -0.034540 0.038910
v 0.035000 -0.034540 0.038910
v -0.000000 -0.033090 0.039510
v 0.035000 -0.033090 0.039510
v -0.000000 -0.031564 0.039877
v 0.035000 -0.031564 0.039877
v -0.000000 -0.030000 0.040000
v -0.000000 0.030000 0.040000
v 0.035000 -0.030000 0.040000
v 0.035000 0.030000 0.040000
v 0.035000 0.031564 0.039877
v 0.035000 0.033090 0.039510
v -0.000000 0.031564 0.039877
v -0.000000 0.033090 0.039510
v -0.000000 0.034540 0.038910
v -0.000000 0.035878 0.038090
v 0.035000 0.034540 0.038910
v 0.035000 0.035878 0.038090
v 0.035000 0.037071 0.037071
v -0.000000 0.037071 0.037071
v 0.035000 0.038090 0.035878
v -0.000000 0.038090 0.035878
v 0.035000 0.038910 0.034540
v -0.000000 0.038910 0.034540
v 0.035000 0.039511 0.033090
v 0.035000 0.039877 0.031564
v -0.000000 0.039511 0.033090
v -0.000000 0.039877 0.031564
v -0.000000 0.040000 0.030000
v -0.000000 0.040000 -0.000000
v 0.035000 0.040000 0.030000
v 0.035000 0.040000 -0.000000
v 0.035000 0.125750 -0.000000
v 0.035000 0.125750 0.060000
v -0.000000 0.125750 -0.000000
v -0.000000 0.125750 0.060000
v -0.000000 0.246250 0.060000
v -0.000000 0.246250 -0.000000
v 0.035000 0.246250 0.060000
v 0.035000 0.246250 -0.000000
v 0.035000 0.350000 -0.000000
v 0.035000 0.350000 0.210000
v -0.000000 0.350000 -0.000000
v -0.000000 0.350000 0.210000
v -0.000000 0.349507 0.216257
v -0.000000 0.348042 0.222360
v 0.035000 0.349507 0.216257
v 0.035000 0.348042 0.222360
v 0.035000 0.345640 0.228159
v 0.035000 0.342361 0.233511
v -0.000000 0.345640 0.228159
v -0.000000 0.342361 0.233511
v -0.000000 0.338284 0.238284
v 0.035000 0.338284 0.238284
v -0.000000 0.333511 0.242360
v 0.035000 0.333511 0.242360
v -0.000000 0.328160 0.245640
v 0.035000 0.328160 0.245640
v -0.000000 0.322361 0.248042
v 0.035000 0.322361 0.248042
v -0.000000 0.316257 0.249507
v 0.035000 0.316257 0.249507
v -0.000000 0.310000 0.250000
v 0.000000 -0.310000 0.250000
v 0.035000 0.310000 0.250000
v 0.035000 -0.310000 0.250000
v 0.035000 -0.316257 0.249507
v 0.000000 -0.316257 0.249507
v 0.035000 -0.322361 0.248042
v 0.035000 -0.328160 0.245640
v 0.000000 -0.322361 0.248042
v 0.000000 -0.328160 0.245640
v 0.000000 -0.333511 0.242360
v 0.000000 -0.338284 0.238284
v 0.035000 -0.333511 0.242360
v 0.035000 -0.338284 0.238284
v 0.035000 -0.342361 0.233511
v 0.000000 -0.342361 0.233511
v 0.035000 -0.345640 0.228159
v 0.000000 -0.345640 0.228159
v 0.035000 -0.348042 0.222360
v 0.000000 -0.348042 0.222360
v 0.035000 -0.349508 0.216257
v 0.000000 -0.349508 0.216257
v 0.035000 -0.350000 0.210000
v 0.035000 -0.350000 -0.000000
v 0.000000 -0.350000 0.210000
v 0.000000 -0.350000 -0.000000
v 0.000000 -0.246250 -0.000000
v 0.035000 -0.246250 -0.000000
v 0.000000 -0.246250 0.060000
v 0.035000 -0.246250 0.060000
v -0.000000 -0.125750 0.060000
v -0.000000 -0.125750 -0.000000
v 0.035000 -0.125750 0.060000
v 1.192500 -0.162348 0.060000
v 1.192500 -0.162348 0.052000
v 1.192500 -0.209652 0.060000
v 0.005000 -0.131250 0.060000
v 1.097500 -0.131250 0.060000
v 1.187919 -0.153943 0.060000
v 1.186453 -0.153162 0.060000
v 1.184877 -0.152634 0.060000
v 1.192362 -0.160692 0.060000
v 1.190367 -0.156174 0.060000
v 1.189236 -0.154957 0.060000
v 1.192362 -0.160692 0.052000
v 1.190367 -0.156174 0.052000
v 1.191952 -0.159082 0.052000
v 1.191281 -0.157562 0.052000
v 1.191952 -0.159082 0.060000
v 1.191281 -0.157562 0.060000
v 1.189236 -0.154957 0.052000
v 1.187919 -0.153943 0.052000
v 1.186453 -0.153162 0.052000
v 1.184877 -0.152634 0.052000
v 1.097500 -0.131250 0.052000
v 0.005000 -0.131250 0.052000
v 0.005000 -0.240750 0.052000
v 1.097500 -0.240750 0.052000
v 1.192500 -0.209652 0.052000
v 1.184877 -0.219366 0.052000
v 1.097500 -0.240750 0.060000
v 1.186453 -0.218838 0.052000
v 1.184877 -0.219366 0.060000
v 1.186453 -0.218838 0.060000
v 1.187919 -0.218057 0.052000
v 1.187919 -0.218057 0.060000
v 1.189236 -0.217043 0.060000
v 1.189236 -0.217043 0.052000
v 1.190367 -0.215826 0.052000
v 1.191952 -0.212918 0.052000
v 1.191281 -0.214438 0.052000
v 1.192362 -0.211308 0.052000
v 1.190367 -0.215826 0.060000
v 1.191952 -0.212918 0.060000
v 1.191281 -0.214438 0.060000
v 1.192362 -0.211308 0.060000
v 0.005000 -0.240750 0.060000
v 0.005000 -0.146250 -0.000000
v 0.005000 -0.126250 -0.000000
v 0.005000 -0.146250 0.052000
v 1.089000 -0.132000 -0.000000
v 1.089000 -0.132000 0.052000
v 1.089000 -0.126250 -0.000000
v 1.089000 -0.126250 0.052000
v 0.005000 -0.126250 0.052000
v 0.005000 -0.245750 -0.000000
v 0.005000 -0.225750 -0.000000
v 0.005000 -0.245750 0.052000
v 1.089000 -0.245750 -0.000000
v 1.089000 -0.245750 0.052000
v 1.089000 -0.240000 -0.000000
v 1.089000 -0.240000 0.052000
v 0.005000 -0.225750 0.052000
v 0.005000 0.126250 -0.000000
v 0.005000 0.146250 -0.000000
v 0.005000 0.126250 0.052000
v 1.089000 0.126250 -0.000000
v 1.089000 0.126250 0.052000
v 1.089000 0.132000 0.006000
v 1.089000 0.132000 0.052000
v 0.005000 0.146250 0.052000
v 1.192500 0.209652 0.060000
v 1.192500 0.209652 0.052000
v 1.192500 0.162348 0.060000
v 1.192362 0.211308 0.060000
v 1.192362 0.211308 0.052000
v 1.191952 0.212918 0.060000
v 1.191281 0.214438 0.060000
v 1.191952 0.212918 0.052000
v 1.191281 0.214438 0.052000
v 1.190367 0.215826 0.052000
v 1.190367 0.215826 0.060000
v 1.189236 0.217043 0.052000
v 1.189236 0.217043 0.060000
v 1.187919 0.218057 0.052000
v 1.187919 0.218057 0.060000
v 1.186453 0.218838 0.052000
v 1.184877 0.219366 0.052000
v 1.186453 0.218838 0.060000
v 1.184877 0.219366 0.060000
v 1.097500 0.240750 0.060000
v 1.097500 0.240750 0.052000
v 0.005000 0.240750 0.060000
v 0.005000 0.131250 0.060000
v 0.005000 0.240750 0.052000
v 0.005000 0.131250 0.052000
v 1.097500 0.131250 0.052000
v 1.097500 0.131250 0.060000
v 1.184877 0.152634 0.052000
v 1.184877 0.152634 0.060000
v 1.186453 0.153162 0.052000
v 1.187919 0.153943 0.052000
v 1.186453 0.153162 0.060000
v 1.187919 0.153943 0.060000
v 1.189236 0.154957 0.060000
v 1.189236 0.154957 0.052000
v 1.190367 0.156174 0.060000
v 1.190367 0.156174 0.052000
v 1.191281 0.157562 0.060000
v 1.191281 0.157562 0.052000
v 1.191952 0.159082 0.060000
v 1.191952 0.159082 0.052000
v 1.192362 0.160692 0.060000
v 1.192362 0.160692 0.052000
v 1.192500 0.162348 0.052000
v 0.005000 0.225750 -0.000000
v 0.005000 0.245750 -0.000000
v 0.005000 0.225750 0.052000
v 1.089000 0.240000 -0.000000
v 1.089000 0.240000 0.052000
v 1.089000 0.245750 0.000000
v 1.089000 0.245750 0.052000
v 0.005000 0.245750 0.052000
v -0.000000 0.350000 0.390000
v 0.035000 0.350000 0.390000
v -0.000000 0.350000 0.460000
v -0.000000 0.349507 0.383742
v 0.035000 0.349507 0.383742
v -0.000000 0.348042 0.377639
v 0.035000 0.348042 0.377639
v -0.000000 0.345640 0.371840
v 0.035000 0.345640 0.371840
v -0.000000 0.342361 0.366488
v -0.000000 0.338284 0.361715
v 0.035000 0.342361 0.366488
v 0.035000 0.338284 0.361715
v 0.035000 0.333511 0.357639
v 0.035000 0.328160 0.354359
v -0.000000 0.333511 0.357639
v -0.000000 0.328160 0.354359
v -0.000000 0.322361 0.351957
v 0.035000 0.322361 0.351957
v -0.000000 0.316257 0.350492
v 0.035000 0.316257 0.350492
v -0.000000 0.310000 0.350000
v 0.000000 -0.310000 0.350000
v 0.035000 0.310000 0.350000
v 0.035000 -0.310000 0.350000
v 0.035000 -0.316257 0.350492
v 0.000000 -0.316257 0.350492
v 0.035000 -0.322361 0.351957
v 0.000000 -0.322361 0.351957
v 0.035000 -0.328160 0.354359
v 0.000000 -0.328160 0.354359
v 0.035000 -0.333511 0.357639
v 0.000000 -0.333511 0.357639
v 0.035000 -0.338284 0.361715
v 0.000000 -0.338284 0.361715
v 0.035000 -0.342361 0.366488
v 0.000000 -0.342361 0.366488
v 0.035000 -0.345640 0.371840
v 0.000000 -0.345640 0.371840
v 0.035000 -0.348042 0.377639
v 0.035000 -0.349508 0.383742
v 0.000000 -0.348042 0.377639
v 0.000000 -0.349508 0.383742
v 0.000000 -0.350000 0.390000
v 0.035000 -0.350000 0.390000
v 0.000000 -0.350000 0.460000
v 0.035000 -0.350000 0.460000
v 0.000000 -0.349508 0.466257
v 0.035000 -0.349508 0.466257
v 0.000000 -0.348042 0.472360
v 0.035000 -0.348042 0.472360
v 0.000000 -0.345640 0.478159
v 0.035000 -0.345640 0.478159
v 0.000000 -0.342361 0.483511
v 0.035000 -0.342361 0.483511
v 0.000000 -0.338284 0.488284
v 0.035000 -0.338284 0.488284
v 0.000000 -0.333511 0.492360
v 0.035000 -0.333511 0.492360
v 0.000000 -0.328160 0.495640
v 0.035000 -0.328160 0.495640
v 0.000000 -0.322361 0.498042
v 0.035000 -0.322361 0.498042
v 0.000000 -0.316257 0.499507
v 0.035000 -0.316257 0.499507
v 0.000000 -0.310000 0.500000
v -0.000000 0.310000 0.500000
v 0.035000 -0.310000 0.500000
v 0.035000 0.310000 0.500000
v 0.035000 0.316257 0.499507
v -0.000000 0.316257 0.499507
v 0.035000 0.322361 0.498042
v -0.000000 0.322361 0.498042
v 0.035000 0.328160 0.495640
v -0.000000 0.328160 0.495640
v 0.035000 0.333511 0.492360
v -0.000000 0.333511 0.492360
v 0.035000 0.338284 0.488284
v -0.000000 0.338284 0.488284
v 0.035000 0.342361 0.483511
v -0.000000 0.342361 0.483511
v 0.035000 0.345640 0.478159
v -0.000000 0.345640 0.478159
v 0.035000 0.348042 0.472360
v -0.000000 0.348042 0.472360
v 0.035000 0.349507 0.466257
v 0.035000 0.350000 0.460000
v -0.000000 0.349507 0.466257
v 1.184267 -0.148694 0.006000
v 1.184267 -0.148694 0.036000
v 1.186484 -0.149426 0.006000
v 1.182867 -0.154528 0.006000
v 1.090400 -0.126166 0.006000
v 1.089000 -0.132000 0.006000
v 1.090400 -0.126166 0.052000
v 1.089000 -0.126250 0.006000
v 1.089000 -0.126250 0.052000
v 1.089000 -0.132000 0.052000
v 1.182867 -0.154528 0.052000
v 1.182867 -0.154528 0.036000
v 1.184267 -0.148694 0.052000
v 1.184133 -0.154946 0.036000
v 1.186484 -0.149426 0.036000
v 1.185313 -0.155569 0.036000
v 1.184133 -0.154946 0.006000
v 1.185313 -0.155569 0.006000
v 1.186372 -0.156379 0.036000
v 1.188547 -0.150516 0.006000
v 1.186372 -0.156379 0.006000
v 1.187283 -0.157354 0.006000
v 1.187283 -0.157354 0.036000
v 1.190401 -0.151933 0.006000
v 1.190401 -0.151933 0.036000
v 1.191994 -0.153639 0.006000
v 1.191994 -0.153639 0.036000
v 1.193282 -0.155586 0.006000
v 1.193282 -0.155586 0.036000
v 1.194227 -0.157720 0.006000
v 1.188018 -0.158467 0.006000
v 1.188558 -0.159686 0.006000
v 1.188558 -0.159686 0.036000
v 1.188018 -0.158467 0.036000
v 1.188889 -0.160978 0.036000
v 1.194227 -0.157720 0.036000
v 1.194806 -0.159981 0.036000
v 1.195000 -0.162307 0.036000
v 1.194806 -0.159981 0.006000
v 1.195000 -0.162307 0.006000
v 1.188889 -0.160978 0.006000
v 1.189000 -0.162307 0.006000
v 1.189000 -0.162307 0.036000
v 1.189000 -0.209693 0.036000
v 1.195000 -0.209693 0.036000
v 1.188889 -0.211022 0.036000
v 1.189000 -0.209693 0.006000
v 1.188889 -0.211022 0.006000
v 1.195000 -0.209693 0.006000
v 1.194806 -0.212019 0.006000
v 1.194806 -0.212019 0.036000
v 1.188558 -0.212314 0.006000
v 1.194227 -0.214280 0.006000
v 1.194227 -0.214280 0.036000
v 1.188018 -0.213533 0.006000
v 1.193282 -0.216414 0.006000
v 1.193282 -0.216414 0.036000
v 1.191994 -0.218360 0.006000
v 1.187283 -0.214646 0.006000
v 1.186372 -0.215621 0.006000
v 1.186372 -0.215621 0.036000
v 1.187283 -0.214646 0.036000
v 1.191994 -0.218360 0.036000
v 1.188018 -0.213533 0.036000
v 1.188558 -0.212314 0.036000
v 1.190401 -0.220067 0.036000
v 1.188547 -0.221484 0.036000
v 1.190401 -0.220067 0.006000
v 1.188547 -0.221484 0.006000
v 1.185313 -0.216431 0.006000
v 1.185313 -0.216431 0.036000
v 1.184133 -0.217054 0.006000
v 1.184133 -0.217054 0.036000
v 1.186484 -0.222574 0.036000
v 1.182867 -0.217472 0.036000
v 1.184267 -0.223306 0.036000
v 1.182867 -0.217472 0.006000
v 1.182867 -0.217472 0.052000
v 1.089000 -0.240000 0.052000
v 1.184267 -0.223306 0.052000
v 1.090400 -0.245834 0.052000
v 1.090400 -0.245834 0.006000
v 1.089000 -0.245750 0.052000
v 1.089000 -0.245750 0.006000
v 1.089000 -0.240000 0.006000
v 1.184267 -0.223306 0.006000
v 1.186484 -0.222574 0.006000
v 1.188547 -0.150516 0.036000
v 1.184267 0.223306 0.006000
v 1.184267 0.223306 0.036000
v 1.186484 0.222574 0.006000
v 1.182867 0.217472 0.006000
v 1.184133 0.217054 0.006000
v 1.090400 0.245834 0.006000
v 1.089000 0.240000 0.006000
v 1.090400 0.245834 0.052000
v 1.089000 0.245750 0.006000
v 1.089000 0.245750 0.052000
v 1.089000 0.240000 0.052000
v 1.182867 0.217472 0.052000
v 1.182867 0.217472 0.036000
v 1.184267 0.223306 0.052000
v 1.184133 0.217054 0.036000
v 1.186484 0.222574 0.036000
v 1.185313 0.216431 0.036000
v 1.188547 0.221484 0.036000
v 1.186372 0.215621 0.036000
v 1.185313 0.216431 0.006000
v 1.186372 0.215621 0.006000
v 1.188547 0.221484 0.006000
v 1.190401 0.220067 0.006000
v 1.190401 0.220067 0.036000
v 1.187283 0.214646 0.006000
v 1.191994 0.218361 0.006000
v 1.193282 0.216414 0.006000
v 1.188018 0.213533 0.006000
v 1.191994 0.218361 0.036000
v 1.193282 0.216414 0.036000
v 1.187283 0.214646 0.036000
v 1.188018 0.213533 0.036000
v 1.188558 0.212314 0.036000
v 1.194227 0.214280 0.036000
v 1.188889 0.211022 0.036000
v 1.188558 0.212314 0.006000
v 1.188889 0.211022 0.006000
v 1.194227 0.214280 0.006000
v 1.194806 0.212019 0.006000
v 1.194806 0.212019 0.036000
v 1.189000 0.209693 0.006000
v 1.195000 0.209693 0.006000
v 1.195000 0.162307 0.006000
v 1.195000 0.209693 0.036000
v 1.195000 0.162307 0.036000
v 1.189000 0.209693 0.036000
v 1.189000 0.162307 0.036000
v 1.189000 0.162307 0.006000
v 1.188889 0.160978 0.036000
v 1.194806 0.159981 0.036000
v 1.188558 0.159686 0.036000
v 1.188889 0.160978 0.006000
v 1.188558 0.159686 0.006000
v 1.194806 0.159981 0.006000
v 1.194227 0.157720 0.006000
v 1.194227 0.157720 0.036000
v 1.188018 0.158467 0.006000
v 1.193282 0.155586 0.006000
v 1.191994 0.153640 0.006000
v 1.187283 0.157354 0.006000
v 1.193282 0.155586 0.036000
v 1.191994 0.153640 0.036000
v 1.188018 0.158467 0.036000
v 1.187283 0.157354 0.036000
v 1.186372 0.156379 0.036000
v 1.190401 0.151933 0.036000
v 1.185313 0.155569 0.036000
v 1.186372 0.156379 0.006000
v 1.185313 0.155569 0.006000
v 1.190401 0.151933 0.006000
v 1.188547 0.150516 0.006000
v 1.188547 0.150516 0.036000
v 1.184133 0.154946 0.006000
v 1.186484 0.149426 0.006000
v 1.184267 0.148694 0.006000
v 1.182867 0.154528 0.006000
v 1.186484 0.149426 0.036000
v 1.184267 0.148694 0.036000
v 1.184133 0.154946 0.036000
v 1.182867 0.154528 0.036000
v 1.182867 0.154528 0.052000
v 1.184267 0.148694 0.052000
v 1.089000 0.132000 0.052000
v 1.090400 0.126166 0.052000
v 1.089000 0.132000 0.006000
v 1.089000 0.126250 0.052000
v 1.089000 0.126250 0.006000
v 1.090400 0.126166 0.006000
v 1.195000 0.209963 0.006000
v 1.195000 0.209963 -0.000000
v 1.195000 0.162538 0.006000
v 1.194806 0.212288 0.006000
v 1.194806 0.212288 -0.000000
v 1.194227 0.214550 0.006000
v 1.193282 0.216683 0.006000
v 1.194227 0.214550 -0.000000
v 1.193282 0.216683 -0.000000
v 1.191994 0.218630 -0.000000
v 1.191994 0.218630 0.006000
v 1.190401 0.220336 -0.000000
v 1.190401 0.220336 0.006000
v 1.188547 0.221754 -0.000000
v 1.186484 0.222844 -0.000000
v 1.188547 0.221754 0.006000
v 1.186484 0.222844 0.006000
v 1.184267 0.223576 0.006000
v 1.184267 0.223576 -0.000000
v 1.090400 0.245834 0.006000
v 1.090400 0.245834 -0.000000
v 1.089000 0.245750 0.006000
v 1.089000 0.245750 0.000000
v 0.005000 0.245750 0.000000
v 0.005000 0.126250 0.000000
v 1.089000 0.126250 0.000000
v 1.090400 0.126166 0.000000
v 1.089000 0.126250 0.006000
v 1.090400 0.126166 0.006000
v 1.184267 0.148924 0.006000
v 1.186484 0.149656 0.006000
v 1.184267 0.148924 -0.000000
v 1.186484 0.149656 -0.000000
v 1.188547 0.150746 -0.000000
v 1.190401 0.152164 -0.000000
v 1.188547 0.150746 0.006000
v 1.190401 0.152164 0.006000
v 1.191994 0.153870 0.006000
v 1.191994 0.153870 -0.000000
v 1.193282 0.155817 0.006000
v 1.193282 0.155817 -0.000000
v 1.194227 0.157951 0.006000
v 1.194806 0.160212 0.006000
v 1.194227 0.157951 -0.000000
v 1.194806 0.160212 -0.000000
v 1.195000 0.162538 -0.000000
v 1.195000 -0.162037 0.006000
v 1.195000 -0.162037 -0.000000
v 1.195000 -0.209462 0.006000
v 1.194806 -0.159712 0.006000
v 1.194806 -0.159712 -0.000000
v 1.194227 -0.157450 0.006000
v 1.194227 -0.157450 -0.000000
v 1.193282 -0.155317 0.006000
v 1.193282 -0.155317 -0.000000
v 1.191994 -0.153370 0.006000
v 1.191994 -0.153370 -0.000000
v 1.190401 -0.151664 0.006000
v 1.190401 -0.151664 -0.000000
v 1.188547 -0.150246 0.006000
v 1.188547 -0.150246 -0.000000
v 1.186484 -0.149156 0.006000
v 1.186484 -0.149156 -0.000000
v 1.184267 -0.148424 0.006000
v 1.184267 -0.148424 -0.000000
v 1.090400 -0.126166 0.006000
v 1.090400 -0.126166 -0.000000
v 1.089000 -0.126250 0.006000
v 1.089000 -0.126250 0.000000
v 0.005000 -0.126250 0.000000
v 0.005000 -0.245750 0.000000
v 1.089000 -0.245750 0.000000
v 1.090400 -0.245834 -0.000000
v 1.089000 -0.245750 0.006000
v 1.090400 -0.245834 0.006000
v 1.184267 -0.223076 0.006000
v 1.184267 -0.223076 -0.000000
v 1.186484 -0.222344 0.006000
v 1.188547 -0.221254 0.006000
v 1.186484 -0.222344 -0.000000
v 1.188547 -0.221254 -0.000000
v 1.190401 -0.219836 -0.000000
v 1.191994 -0.218130 -0.000000
v 1.190401 -0.219836 0.006000
v 1.191994 -0.218130 0.006000
v 1.193282 -0.216183 0.006000
v 1.193282 -0.216183 -0.000000
v 1.194227 -0.214049 0.006000
v 1.194227 -0.214049 -0.000000
v 1.194806 -0.211788 0.006000
v 1.194806 -0.211788 -0.000000
v 1.195000 -0.209462 -0.000000
vn -0.0000 -0.0000 -1.0000
vn -0.0000 1.0000 -0.0000
vn 1.0000 -0.0000 -0.0000
vn -0.0000 0.9969 -0.0785
vn -0.0000 0.9724 -0.2335
vn -1.0000 -0.0000 -0.0000
vn -0.0000 0.9239 -0.3827
vn -0.0000 0.8526 -0.5225
vn -0.0000 0.7604 -0.6494
vn -0.0000 0.6495 -0.7604
vn -0.0000 0.5225 -0.8527
vn -0.0000 0.3827 -0.9239
vn -0.0000 0.2334 -0.9724
vn -0.0000 0.0785 -0.9969
vn -0.0000 -0.0785 -0.9969
vn -0.0000 -0.2334 -0.9724
vn -0.0000 -0.3827 -0.9239
vn -0.0000 -0.5225 -0.8526
vn -0.0000 -0.6494 -0.7604
vn -0.0000 -0.7604 -0.6494
vn -0.0000 -0.8526 -0.5225
vn -0.0000 -0.9239 -0.3827
vn -0.0000 -0.9724 -0.2334
vn -0.0000 -0.9969 -0.0785
vn -0.0000 -1.0000 -0.0000
vn -0.0000 0.9969 0.0785
vn -0.0000 0.9724 0.2334
vn -0.0000 0.9239 0.3827
vn -0.0000 0.8526 0.5225
vn -0.0000 0.7604 0.6494
vn -0.0000 0.6494 0.7604
vn -0.0000 0.5225 0.8526
vn -0.0000 0.3827 0.9239
vn -0.0000 0.2335 0.9724
vn -0.0000 0.0785 0.9969
vn -0.0000 -0.0000 1.0000
vn -0.0000 -0.0785 0.9969
vn -0.0000 -0.2335 0.9724
vn -0.0000 -0.3827 0.9239
vn -0.0000 -0.5225 0.8526
vn -0.0000 -0.6494 0.7604
vn -0.0000 -0.7604 0.6494
vn -0.0000 -0.8526 0.5225
vn -0.0000 -0.9239 0.3827
vn -0.0000 -0.9724 0.2334
vn -0.0000 -0.9969 0.0785
vn 0.8352 0.5499 -0.0000
vn 0.3176 0.9482 -0.0000
vn 0.4702 0.8826 -0.0000
vn 0.9690 0.2469 -0.0000
vn 0.9965 0.0831 -0.0000
vn 0.7327 0.6806 -0.0000
vn 0.9148 0.4040 -0.0000
vn 0.9965 -0.0832 -0.0000
vn 0.9690 -0.2469 -0.0000
vn 0.3176 -0.9482 -0.0000
vn 0.9148 -0.4040 -0.0000
vn 0.6098 -0.7925 -0.0000
vn 0.6098 0.7925 -0.0000
vn 0.2377 0.9713 -0.0000
vn 0.7326 -0.6807 -0.0000
vn 0.4702 -0.8825 -0.0000
vn 0.8353 -0.5499 -0.0000
vn 0.2377 -0.9713 -0.0000
vn 0.0131 -0.9999 -0.0000
vn 0.0131 0.9999 -0.0000
vn -0.0000 0.7220 -0.6919
vn -0.0000 0.0001 1.0000
vn 0.9148 0.4039 -0.0000
vn 0.8353 0.5499 -0.0000
vn 0.7326 0.6807 -0.0000
vn 0.6099 0.7925 -0.0000
vn 0.4702 0.8825 -0.0000
vn 0.6099 -0.7925 -0.0000
vn 0.8352 -0.5499 -0.0000
vn 0.9148 -0.4039 -0.0000
vn -0.0000 0.0001 -1.0000
vn -0.0000 0.9724 -0.2334
vn -0.0000 0.6494 -0.7604
vn -0.0000 0.5225 -0.8526
vn -0.0000 -0.7604 -0.6495
vn -0.0000 -0.9724 -0.2335
vn -0.0000 -0.2334 0.9724
vn -0.0000 0.2334 0.9724
vn 0.3136 0.9495 -0.0000
vn 0.2334 0.9724 -0.0000
vn -0.9724 0.2333 -0.0000
vn 0.0599 -0.9982 -0.0000
vn -0.0003 -0.0000 -1.0000
vn -0.2334 -0.9724 -0.0000
vn 0.9724 -0.2334 -0.0000
vn -0.3136 -0.9495 -0.0000
vn -0.4670 -0.8843 -0.0000
vn -0.6074 -0.7944 -0.0000
vn -0.7309 -0.6825 -0.0000
vn 0.7309 0.6825 -0.0000
vn 0.6075 0.7943 -0.0000
vn 0.8341 0.5516 -0.0000
vn 0.9143 0.4051 -0.0000
vn -0.8342 -0.5514 -0.0000
vn -0.9142 -0.4052 -0.0000
vn -0.9143 -0.4051 -0.0000
vn -0.8341 -0.5517 -0.0000
vn -0.9688 -0.2478 -0.0000
vn 0.9688 0.2477 -0.0000
vn 0.9965 0.0833 -0.0000
vn -0.9965 -0.0832 -0.0000
vn -0.9965 -0.0834 -0.0000
vn -0.9965 0.0834 -0.0000
vn -0.9965 0.0832 -0.0000
vn 0.9965 -0.0833 -0.0000
vn 0.9688 -0.2477 -0.0000
vn 0.9142 -0.4053 -0.0000
vn 0.8341 -0.5516 -0.0000
vn -0.8341 0.5517 -0.0000
vn -0.7309 0.6825 -0.0000
vn -0.8342 0.5514 -0.0000
vn -0.9142 0.4052 -0.0000
vn -0.9143 0.4051 -0.0000
vn -0.9688 0.2478 -0.0000
vn 0.7310 -0.6824 -0.0000
vn 0.6075 -0.7943 -0.0000
vn -0.6074 0.7944 -0.0000
vn -0.4670 0.8843 -0.0000
vn -0.3136 0.9495 -0.0000
vn 0.9724 0.2334 -0.0000
vn -0.2334 0.9724 -0.0000
vn -0.0000 -0.0001 1.0000
vn 0.2334 -0.9724 -0.0000
vn 0.0003 -0.0000 1.0000
vn -0.9724 -0.2334 -0.0000
vn -0.0601 -0.9982 -0.0000
vn 0.3136 -0.9495 -0.0000
vn 0.4670 -0.8843 -0.0000
vn 0.4670 0.8843 -0.0000
vn -0.9724 0.2334 -0.0000
vn -0.0602 0.9982 -0.0000
vn 0.0003 -0.0001 1.0000
vn 0.6074 -0.7944 -0.0000
vn -0.0003 -0.0001 -1.0000
vn 0.0601 0.9982 -0.0000
vn 0.9965 0.0834 -0.0000
vn 0.9142 0.4052 -0.0000
vn 0.6074 0.7944 -0.0000
vn 0.2307 0.9730 -0.0000
vn -0.0599 0.9982 -0.0000
vn -0.0599 -0.9982 -0.0000
vn 0.2356 -0.9718 -0.0000
vn 0.7309 -0.6825 -0.0000
vn 0.9142 -0.4052 -0.0000
vn 0.3136 -0.9496 -0.0000
vn -0.0000 0.9969 -0.0784
vn -0.0000 -0.9724 0.2335
vn 0.9965 0.0832 -0.0000
vn 0.9965 -0.0831 -0.0000
vn 0.7327 -0.6806 -0.0000
vn 0.4702 -0.8826 -0.0000
vn 0.0055 -0.0000 -1.0000
vn -0.0000 -0.6495 -0.7604
vn -0.0000 -0.6495 0.7604
vn -0.0000 0.6495 0.7604
vn 0.0602 -0.9982 -0.0000
vn 0.7310 0.6824 -0.0000
vn 0.9142 0.4053 -0.0000
vn 0.9143 -0.4051 -0.0000
vn -0.9724 -0.2333 -0.0000
vn -0.0000 -0.0001 -1.0000
vn 0.9965 -0.0834 -0.0000
vn 0.2307 0.9730 -0.0001
vn -0.0599 0.9982 -0.0001
s 0
usemtl black
f 111//1 1//1 3//1
f 1//2 5//2 4//2
f 82//3 26//3 27//3
f 8//4 4//4 5//4
f 8//5 7//5 6//5
f 53//6 30//6 25//6
f 9//7 12//7 7//7
f 11//8 12//8 10//8
f 11//9 14//9 13//9
f 16//10 15//10 14//10
f 17//11 19//11 15//11
f 18//12 21//12 19//12
f 20//13 23//13 21//13
f 22//14 26//14 23//14
f 27//1 24//1 25//1
f 30//15 27//15 25//15
f 31//16 28//16 30//16
f 32//17 29//17 31//17
f 33//18 34//18 32//18
f 37//19 35//19 33//19
f 39//20 36//20 37//20
f 41//21 38//21 39//21
f 44//22 40//22 41//22
f 44//23 43//23 42//23
f 45//24 48//24 43//24
f 49//25 46//25 47//25
f 50//1 47//1 52//1
f 53//2 50//2 52//2
f 54//1 51//1 53//1
f 57//25 54//25 55//25
f 60//1 57//1 55//1
f 60//2 59//2 58//2
f 61//26 64//26 59//26
f 65//27 62//27 63//27
f 63//28 66//28 65//28
f 68//29 67//29 66//29
f 69//30 71//30 67//30
f 70//31 73//31 71//31
f 72//32 75//32 73//32
f 74//33 77//33 75//33
f 76//34 79//34 77//34
f 78//35 82//35 79//35
f 81//36 82//36 80//36
f 84//37 81//37 85//37
f 86//38 85//38 88//38
f 88//39 87//39 86//39
f 89//40 92//40 87//40
f 90//41 93//41 92//41
f 94//42 91//42 95//42
f 96//43 95//43 97//43
f 98//44 97//44 99//44
f 99//45 100//45 98//45
f 101//46 102//46 100//46
f 105//25 102//25 104//25
f 105//1 107//1 103//1
f 108//2 107//2 106//2
f 110//1 109//1 108//1
f 111//25 112//25 110//25
f 127//47 122//47 129//47
f 138//3 113//3 115//3
f 120//48 132//48 133//48
f 119//49 131//49 132//49
f 128//50 124//50 126//50
f 121//51 114//51 124//51
f 123//52 125//52 130//52
f 129//53 126//53 127//53
f 116//2 134//2 135//2
f 137//25 156//25 136//25
f 115//54 151//54 138//54
f 133//1 114//1 139//1
f 149//55 155//55 153//55
f 143//56 139//56 141//56
f 150//57 153//57 154//57
f 144//58 146//58 145//58
f 118//59 130//59 131//59
f 117//60 133//60 134//60
f 142//36 145//36 153//36
f 152//61 147//61 148//61
f 145//62 141//62 144//62
f 154//63 148//63 150//63
f 140//64 139//64 142//64
f 156//6 135//6 136//6
f 164//6 157//6 159//6
f 160//1 158//1 162//1
f 160//65 159//65 157//65
f 162//3 161//3 160//3
f 162//2 164//2 163//2
f 164//36 161//36 163//36
f 159//36 161//36 164//36
f 165//1 170//1 168//1
f 172//6 165//6 167//6
f 169//25 165//25 168//25
f 170//3 169//3 168//3
f 166//66 171//66 170//66
f 171//36 167//36 169//36
f 180//6 173//6 175//6
f 173//67 178//67 176//67
f 177//25 173//25 176//25
f 178//3 177//3 176//3
f 178//66 180//66 179//66
f 179//68 175//68 177//68
f 224//3 181//3 183//3
f 184//51 182//51 185//51
f 209//36 213//36 220//36
f 186//50 185//50 188//50
f 188//69 187//69 186//69
f 196//1 192//1 185//1
f 189//70 191//70 187//70
f 190//71 193//71 191//71
f 192//72 195//72 193//72
f 194//73 198//73 195//73
f 199//48 196//48 197//48
f 200//60 197//60 201//60
f 202//2 201//2 204//2
f 205//6 202//6 204//6
f 205//25 207//25 203//25
f 207//64 208//64 209//64
f 212//56 208//56 210//56
f 213//62 210//62 211//62
f 214//74 211//74 215//74
f 216//61 215//61 217//61
f 218//75 217//75 219//75
f 220//76 219//76 221//76
f 222//55 221//55 223//55
f 183//54 223//54 224//54
f 228//77 226//77 230//77
f 232//6 225//6 227//6
f 229//65 225//65 228//65
f 230//3 229//3 228//3
f 231//2 226//2 232//2
f 229//36 232//36 227//36
f 319//2 233//2 235//2
f 236//4 234//4 237//4
f 303//6 311//6 320//6
f 238//78 237//78 239//78
f 240//7 239//7 241//7
f 242//8 241//8 244//8
f 244//9 243//9 242//9
f 272//3 264//3 257//3
f 248//79 245//79 246//79
f 249//80 246//80 247//80
f 250//12 247//12 251//12
f 252//13 251//13 253//13
f 254//14 253//14 256//14
f 255//1 256//1 257//1
f 257//15 259//15 255//15
f 261//16 258//16 260//16
f 260//17 263//17 261//17
f 262//18 265//18 263//18
f 264//19 267//19 265//19
f 266//81 269//81 267//81
f 271//21 268//21 270//21
f 274//22 270//22 272//22
f 275//82 272//82 273//82
f 273//24 276//24 275//24
f 278//25 277//25 279//25
f 279//46 280//46 278//46
f 282//45 281//45 283//45
f 284//44 283//44 285//44
f 285//43 286//43 284//43
f 288//42 287//42 289//42
f 290//41 289//41 291//41
f 292//40 291//40 293//40
f 294//39 293//39 295//39
f 296//83 295//83 297//83
f 297//37 298//37 296//37
f 298//36 301//36 299//36
f 301//35 303//35 299//35
f 302//84 305//84 303//84
f 304//33 307//33 305//33
f 306//32 309//32 307//32
f 308//31 311//31 309//31
f 310//30 313//30 311//30
f 312//29 315//29 313//29
f 314//28 317//28 315//28
f 316//27 320//27 317//27
f 318//26 235//26 320//26
f 323//85 322//85 335//85
f 327//86 333//86 322//86
f 324//1 323//1 337//1
f 321//1 326//1 325//1
f 326//87 327//87 325//87
f 327//88 328//88 325//88
f 329//89 327//89 330//89
f 332//90 331//90 330//90
f 327//36 331//36 333//36
f 331//91 322//91 333//91
f 335//36 332//36 334//36
f 324//92 334//92 332//92
f 336//36 335//36 334//36
f 337//93 336//93 334//93
f 337//92 334//92 324//92
f 323//1 338//1 337//1
f 338//93 336//93 337//93
f 338//94 339//94 336//94
f 341//94 339//94 338//94
f 344//1 338//1 340//1
f 341//95 343//95 339//95
f 342//95 343//95 341//95
f 346//1 341//1 344//1
f 345//96 346//96 344//96
f 408//97 344//97 340//97
f 346//1 351//1 342//1
f 347//98 348//98 346//98
f 349//99 350//99 348//99
f 351//1 350//1 352//1
f 351//100 354//100 342//100
f 352//101 353//101 351//101
f 351//102 353//102 354//102
f 342//103 354//103 343//103
f 356//36 354//36 353//36
f 347//36 354//36 349//36
f 352//104 355//104 353//104
f 356//36 355//36 357//36
f 359//105 356//105 357//105
f 358//36 355//36 363//36
f 357//106 360//106 359//106
f 360//1 361//1 359//1
f 350//1 361//1 352//1
f 361//104 355//104 352//104
f 361//107 363//107 355//107
f 362//108 363//108 361//108
f 364//36 358//36 363//36
f 367//6 363//6 362//6
f 366//36 365//36 364//36
f 367//109 366//109 364//109
f 367//1 369//1 368//1
f 368//110 366//110 367//110
f 369//1 362//1 360//1
f 368//1 369//1 370//1
f 365//111 370//111 369//111
f 369//3 358//3 365//3
f 371//112 373//112 370//112
f 368//1 370//1 372//1
f 372//1 370//1 373//1
f 374//113 376//113 373//113
f 372//1 373//1 375//1
f 375//1 373//1 376//1
f 375//1 376//1 379//1
f 377//114 378//114 376//114
f 379//1 376//1 378//1
f 379//115 382//115 375//115
f 379//1 378//1 380//1
f 380//116 381//116 379//116
f 379//116 381//116 382//116
f 375//117 382//117 384//117
f 383//36 381//36 386//36
f 383//36 384//36 382//36
f 372//118 384//118 385//118
f 384//36 374//36 385//36
f 375//119 384//119 372//119
f 374//36 366//36 385//36
f 372//120 385//120 368//120
f 368//120 385//120 366//120
f 383//121 388//121 378//121
f 389//122 386//122 387//122
f 386//36 391//36 387//36
f 380//1 378//1 388//1
f 380//1 388//1 390//1
f 390//1 388//1 389//1
f 390//123 391//123 380//123
f 390//124 393//124 391//124
f 390//1 389//1 392//1
f 392//124 393//124 390//124
f 394//36 391//36 393//36
f 395//36 394//36 393//36
f 392//125 395//125 393//125
f 398//126 396//126 395//126
f 397//125 395//125 392//125
f 399//127 398//127 395//127
f 401//128 398//128 399//128
f 402//129 406//129 396//129
f 399//130 403//130 401//130
f 405//131 401//131 399//131
f 404//132 401//132 403//132
f 402//1 397//1 406//1
f 394//133 406//133 407//133
f 397//1 407//1 406//1
f 387//134 407//134 389//134
f 392//1 389//1 407//1
f 392//1 407//1 397//1
f 380//123 391//123 381//123
f 347//36 339//36 343//36
f 345//36 336//36 339//36
f 335//135 340//135 323//135
f 411//85 410//85 424//85
f 416//86 422//86 410//86
f 413//1 409//1 411//1
f 414//1 412//1 415//1
f 412//1 409//1 413//1
f 419//136 414//136 415//136
f 416//137 414//137 417//137
f 419//138 416//138 418//138
f 415//90 412//90 421//90
f 416//36 420//36 422//36
f 420//91 410//91 422//91
f 421//92 413//92 423//92
f 424//36 421//36 423//36
f 425//36 424//36 423//36
f 423//93 428//93 425//93
f 427//36 426//36 425//36
f 427//94 428//94 429//94
f 428//1 430//1 429//1
f 413//1 411//1 428//1
f 428//1 411//1 430//1
f 426//97 431//97 430//97
f 424//135 430//135 411//135
f 429//1 430//1 431//1
f 432//96 434//96 431//96
f 429//1 431//1 433//1
f 433//1 431//1 434//1
f 433//1 434//1 436//1
f 436//1 434//1 435//1
f 435//98 437//98 438//98
f 437//36 427//36 439//36
f 437//36 440//36 438//36
f 427//95 433//95 439//95
f 439//100 436//100 440//100
f 442//36 440//36 441//36
f 440//101 444//101 441//101
f 443//36 442//36 441//36
f 443//104 444//104 445//104
f 444//1 446//1 445//1
f 436//1 435//1 444//1
f 444//1 435//1 446//1
f 442//105 447//105 446//105
f 438//99 446//99 435//99
f 445//1 446//1 447//1
f 448//106 450//106 447//106
f 445//1 447//1 449//1
f 449//1 447//1 450//1
f 450//1 451//1 449//1
f 450//3 453//3 451//3
f 452//36 443//36 454//36
f 455//36 452//36 454//36
f 443//108 449//108 454//108
f 455//6 449//6 456//6
f 457//110 456//110 460//110
f 457//36 453//36 455//36
f 464//36 457//36 459//36
f 459//120 460//120 461//120
f 456//1 451//1 460//1
f 460//1 462//1 461//1
f 460//1 451//1 462//1
f 458//112 463//112 462//112
f 453//111 462//111 451//111
f 461//1 462//1 463//1
f 464//113 466//113 463//113
f 461//1 463//1 465//1
f 465//1 463//1 466//1
f 465//1 466//1 468//1
f 468//1 466//1 467//1
f 467//114 469//114 470//114
f 471//36 464//36 459//36
f 470//36 471//36 472//36
f 459//119 465//119 471//119
f 471//115 468//115 472//115
f 473//36 470//36 472//36
f 472//116 476//116 473//116
f 475//36 474//36 473//36
f 475//123 476//123 477//123
f 476//1 478//1 477//1
f 468//1 467//1 476//1
f 476//1 467//1 478//1
f 474//139 479//139 478//139
f 470//121 478//121 467//121
f 477//1 478//1 479//1
f 480//134 482//134 479//134
f 477//1 479//1 481//1
f 481//1 479//1 482//1
f 481//1 482//1 484//1
f 484//1 482//1 483//1
f 483//133 485//133 486//133
f 485//36 475//36 487//36
f 485//36 488//36 486//36
f 475//124 481//124 487//124
f 487//125 484//125 488//125
f 489//126 486//126 488//126
f 488//127 484//127 493//127
f 489//36 492//36 490//36
f 491//140 492//140 494//140
f 496//131 491//131 493//131
f 495//141 494//141 492//141
f 486//129 490//129 492//129
f 483//1 493//1 484//1
f 449//1 451//1 456//1
f 542//3 497//3 499//3
f 500//142 498//142 501//142
f 502//105 501//105 504//105
f 503//143 504//143 505//143
f 498//1 515//1 506//1
f 507//98 505//98 506//98
f 509//96 506//96 508//96
f 508//144 512//144 509//144
f 513//135 510//135 511//135
f 514//85 511//85 515//85
f 514//145 517//145 516//145
f 519//146 516//146 517//146
f 525//147 522//147 523//147
f 523//148 526//148 525//148
f 528//133 527//133 526//133
f 532//134 529//134 530//134
f 530//139 533//139 532//139
f 531//149 534//149 533//149
f 536//114 535//114 537//114
f 538//150 537//150 540//150
f 540//112 539//112 538//112
f 499//111 541//111 542//111
f 588//3 543//3 545//3
f 546//142 544//142 547//142
f 548//105 547//105 549//105
f 550//143 549//143 551//143
f 552//98 551//98 553//98
f 554//96 553//96 555//96
f 556//144 555//144 557//144
f 558//135 557//135 559//135
f 560//85 559//85 561//85
f 563//145 560//145 561//145
f 562//137 565//137 564//137
f 588//1 579//1 573//1
f 571//147 568//147 569//147
f 569//148 572//148 571//148
f 574//151 573//151 576//151
f 576//134 575//134 574//134
f 580//139 577//139 578//139
f 578//149 581//149 580//149
f 579//114 582//114 581//114
f 584//150 583//150 585//150
f 586//112 585//112 587//112
f 545//111 587//111 588//111
f 111//1 2//1 1//1
f 1//2 2//2 5//2
f 49//3 50//3 48//3
f 50//3 51//3 48//3
f 56//3 57//3 58//3
f 56//3 58//3 59//3
f 43//3 48//3 51//3
f 51//3 56//3 82//3
f 56//3 59//3 82//3
f 82//3 59//3 77//3
f 59//3 64//3 67//3
f 64//3 65//3 67//3
f 65//3 66//3 67//3
f 67//3 71//3 73//3
f 73//3 75//3 77//3
f 77//3 79//3 82//3
f 82//3 83//3 26//3
f 83//3 84//3 102//3
f 112//3 83//3 109//3
f 84//3 86//3 93//3
f 86//3 87//3 93//3
f 87//3 92//3 93//3
f 93//3 94//3 100//3
f 94//3 96//3 100//3
f 96//3 98//3 100//3
f 100//3 102//3 84//3
f 102//3 103//3 109//3
f 103//3 107//3 109//3
f 112//3 3//3 4//3
f 3//3 1//3 4//3
f 102//3 109//3 83//3
f 83//3 112//3 26//3
f 23//3 112//3 21//3
f 67//3 73//3 77//3
f 43//3 51//3 42//3
f 42//3 51//3 40//3
f 59//3 67//3 77//3
f 112//3 23//3 26//3
f 84//3 93//3 100//3
f 112//3 4//3 6//3
f 112//3 6//3 7//3
f 40//3 51//3 38//3
f 38//3 51//3 36//3
f 112//3 7//3 12//3
f 112//3 12//3 13//3
f 36//3 51//3 35//3
f 35//3 51//3 34//3
f 112//3 13//3 14//3
f 112//3 14//3 15//3
f 34//3 51//3 29//3
f 29//3 51//3 28//3
f 112//3 15//3 19//3
f 112//3 19//3 21//3
f 28//3 51//3 27//3
f 27//3 51//3 82//3
f 8//152 6//152 4//152
f 8//5 9//5 7//5
f 5//6 2//6 111//6
f 5//6 111//6 110//6
f 8//6 5//6 110//6
f 108//6 106//6 105//6
f 9//6 8//6 110//6
f 108//6 105//6 104//6
f 10//6 9//6 110//6
f 110//6 108//6 81//6
f 108//6 104//6 81//6
f 81//6 104//6 88//6
f 104//6 101//6 99//6
f 99//6 97//6 95//6
f 95//6 91//6 90//6
f 90//6 89//6 88//6
f 88//6 85//6 81//6
f 81//6 80//6 24//6
f 80//6 78//6 61//6
f 53//6 80//6 54//6
f 78//6 76//6 70//6
f 76//6 74//6 70//6
f 74//6 72//6 70//6
f 70//6 69//6 62//6
f 69//6 68//6 62//6
f 68//6 63//6 62//6
f 62//6 61//6 78//6
f 61//6 60//6 54//6
f 60//6 55//6 54//6
f 53//6 52//6 46//6
f 52//6 47//6 46//6
f 61//6 54//6 80//6
f 80//6 53//6 25//6
f 81//6 24//6 110//6
f 95//6 90//6 88//6
f 104//6 99//6 88//6
f 99//6 95//6 88//6
f 10//6 110//6 11//6
f 11//6 110//6 16//6
f 78//6 70//6 62//6
f 53//6 46//6 45//6
f 53//6 45//6 44//6
f 110//6 24//6 22//6
f 16//6 110//6 17//6
f 17//6 110//6 18//6
f 53//6 44//6 41//6
f 53//6 41//6 39//6
f 18//6 110//6 20//6
f 20//6 110//6 22//6
f 53//6 39//6 37//6
f 53//6 37//6 33//6
f 53//6 33//6 32//6
f 53//6 32//6 31//6
f 24//6 80//6 25//6
f 53//6 31//6 30//6
f 9//7 10//7 12//7
f 11//8 13//8 12//8
f 11//9 16//9 14//9
f 16//10 17//10 15//10
f 17//80 18//80 19//80
f 18//12 20//12 21//12
f 20//13 22//13 23//13
f 22//14 24//14 26//14
f 27//1 26//1 24//1
f 30//15 28//15 27//15
f 31//16 29//16 28//16
f 32//17 34//17 29//17
f 33//18 35//18 34//18
f 37//19 36//19 35//19
f 39//20 38//20 36//20
f 41//21 40//21 38//21
f 44//22 42//22 40//22
f 44//23 45//23 43//23
f 45//24 46//24 48//24
f 49//25 48//25 46//25
f 50//1 49//1 47//1
f 53//2 51//2 50//2
f 54//1 56//1 51//1
f 57//25 56//25 54//25
f 60//1 58//1 57//1
f 60//2 61//2 59//2
f 61//26 62//26 64//26
f 65//27 64//27 62//27
f 63//28 68//28 66//28
f 68//29 69//29 67//29
f 69//30 70//30 71//30
f 70//31 72//31 73//31
f 72//32 74//32 75//32
f 74//33 76//33 77//33
f 76//34 78//34 79//34
f 78//35 80//35 82//35
f 81//36 83//36 82//36
f 84//37 83//37 81//37
f 86//38 84//38 85//38
f 88//39 89//39 87//39
f 89//40 90//40 92//40
f 90//41 91//41 93//41
f 94//42 93//42 91//42
f 96//43 94//43 95//43
f 98//44 96//44 97//44
f 99//153 101//153 100//153
f 101//46 104//46 102//46
f 105//25 103//25 102//25
f 105//1 106//1 107//1
f 108//2 109//2 107//2
f 110//1 112//1 109//1
f 111//25 3//25 112//25
f 127//47 125//47 122//47
f 138//3 114//3 113//3
f 120//48 119//48 132//48
f 119//73 118//73 131//73
f 128//50 121//50 124//50
f 121//154 113//154 114//154
f 123//71 122//71 125//71
f 129//69 128//69 126//69
f 116//2 117//2 134//2
f 137//25 140//25 156//25
f 115//155 155//155 151//155
f 133//1 132//1 131//1
f 131//1 130//1 133//1
f 130//1 125//1 133//1
f 125//1 127//1 126//1
f 126//1 124//1 125//1
f 124//1 114//1 125//1
f 114//1 138//1 139//1
f 138//1 151//1 139//1
f 151//1 149//1 150//1
f 150//1 148//1 147//1
f 147//1 144//1 141//1
f 141//1 139//1 150//1
f 139//1 137//1 134//1
f 137//1 136//1 135//1
f 135//1 134//1 137//1
f 134//1 133//1 139//1
f 151//1 150//1 139//1
f 150//1 147//1 141//1
f 133//1 125//1 114//1
f 149//55 151//55 155//55
f 143//56 142//56 139//56
f 150//76 149//76 153//76
f 144//74 147//74 146//74
f 118//72 123//72 130//72
f 117//60 120//60 133//60
f 115//36 113//36 120//36
f 113//36 121//36 120//36
f 121//36 128//36 129//36
f 129//36 122//36 123//36
f 123//36 118//36 119//36
f 119//36 120//36 129//36
f 120//36 117//36 142//36
f 115//36 142//36 153//36
f 117//36 116//36 156//36
f 156//36 140//36 117//36
f 140//36 142//36 117//36
f 142//36 143//36 145//36
f 145//36 146//36 153//36
f 146//36 152//36 153//36
f 152//36 154//36 153//36
f 153//36 155//36 115//36
f 121//36 129//36 120//36
f 129//36 123//36 119//36
f 142//36 115//36 120//36
f 152//156 146//156 147//156
f 145//157 143//157 141//157
f 154//63 152//63 148//63
f 140//64 137//64 139//64
f 156//6 116//6 135//6
f 164//6 158//6 157//6
f 160//1 157//1 158//1
f 160//65 161//65 159//65
f 162//3 163//3 161//3
f 162//2 158//2 164//2
f 165//1 166//1 170//1
f 172//6 166//6 165//6
f 169//25 167//25 165//25
f 170//3 171//3 169//3
f 166//66 172//66 171//66
f 171//36 172//36 167//36
f 180//6 174//6 173//6
f 173//158 174//158 178//158
f 177//25 175//25 173//25
f 178//3 179//3 177//3
f 178//66 174//66 180//66
f 179//36 180//36 175//36
f 224//3 182//3 181//3
f 184//154 181//154 182//154
f 183//36 181//36 199//36
f 181//36 184//36 199//36
f 184//36 186//36 187//36
f 187//36 191//36 193//36
f 193//36 195//36 198//36
f 198//36 199//36 187//36
f 199//36 200//36 209//36
f 183//36 209//36 220//36
f 200//36 202//36 203//36
f 203//36 207//36 200//36
f 207//36 209//36 200//36
f 209//36 212//36 213//36
f 213//36 214//36 220//36
f 214//36 216//36 220//36
f 216//36 218//36 220//36
f 220//36 222//36 183//36
f 184//36 187//36 199//36
f 187//36 193//36 198//36
f 209//36 183//36 199//36
f 186//50 184//50 185//50
f 188//53 189//53 187//53
f 192//1 190//1 189//1
f 189//1 188//1 192//1
f 188//1 185//1 192//1
f 185//1 182//1 196//1
f 182//1 224//1 197//1
f 196//1 182//1 197//1
f 224//1 223//1 221//1
f 221//1 219//1 217//1
f 217//1 215//1 221//1
f 215//1 211//1 221//1
f 211//1 210//1 208//1
f 208//1 206//1 201//1
f 206//1 205//1 201//1
f 205//1 204//1 201//1
f 201//1 197//1 208//1
f 208//1 197//1 224//1
f 196//1 194//1 192//1
f 224//1 221//1 211//1
f 211//1 208//1 224//1
f 189//70 190//70 191//70
f 190//52 192//52 193//52
f 192//59 194//59 195//59
f 194//49 196//49 198//49
f 199//48 198//48 196//48
f 200//60 199//60 197//60
f 202//2 200//2 201//2
f 205//6 203//6 202//6
f 205//25 206//25 207//25
f 207//64 206//64 208//64
f 212//56 209//56 208//56
f 213//157 212//157 210//157
f 214//58 213//58 211//58
f 216//156 214//156 215//156
f 218//75 216//75 217//75
f 220//57 218//57 219//57
f 222//55 220//55 221//55
f 183//155 222//155 223//155
f 228//1 225//1 226//1
f 232//6 226//6 225//6
f 229//65 227//65 225//65
f 230//3 231//3 229//3
f 231//2 230//2 226//2
f 229//128 231//128 232//128
f 319//2 234//2 233//2
f 236//4 233//4 234//4
f 320//6 235//6 299//6
f 235//6 233//6 299//6
f 233//6 236//6 238//6
f 238//6 240//6 242//6
f 242//6 243//6 248//6
f 248//6 249//6 254//6
f 249//6 250//6 254//6
f 250//6 252//6 254//6
f 254//6 255//6 298//6
f 255//6 259//6 276//6
f 298//6 278//6 294//6
f 259//6 261//6 263//6
f 263//6 265//6 267//6
f 267//6 269//6 271//6
f 271//6 274//6 275//6
f 275//6 276//6 263//6
f 276//6 278//6 255//6
f 263//6 276//6 259//6
f 278//6 280//6 282//6
f 282//6 284//6 286//6
f 286//6 288//6 290//6
f 290//6 292//6 294//6
f 294//6 296//6 298//6
f 298//6 299//6 254//6
f 299//6 303//6 320//6
f 254//6 299//6 233//6
f 303//6 305//6 307//6
f 307//6 309//6 303//6
f 309//6 311//6 303//6
f 311//6 313//6 320//6
f 313//6 315//6 320//6
f 315//6 317//6 320//6
f 233//6 238//6 248//6
f 238//6 242//6 248//6
f 278//6 298//6 255//6
f 263//6 267//6 271//6
f 271//6 275//6 263//6
f 278//6 282//6 294//6
f 282//6 286//6 294//6
f 286//6 290//6 294//6
f 233//6 248//6 254//6
f 238//78 236//78 237//78
f 240//7 238//7 239//7
f 242//8 240//8 241//8
f 244//9 245//9 243//9
f 241//3 239//3 237//3
f 237//3 234//3 247//3
f 234//3 319//3 301//3
f 247//3 234//3 253//3
f 319//3 318//3 312//3
f 318//3 316//3 312//3
f 316//3 314//3 312//3
f 312//3 310//3 308//3
f 308//3 306//3 312//3
f 306//3 304//3 312//3
f 304//3 302//3 301//3
f 301//3 300//3 257//3
f 300//3 297//3 281//3
f 257//3 300//3 277//3
f 297//3 295//3 293//3
f 293//3 291//3 297//3
f 291//3 289//3 297//3
f 289//3 287//3 285//3
f 285//3 283//3 281//3
f 281//3 279//3 300//3
f 279//3 277//3 300//3
f 277//3 273//3 272//3
f 272//3 270//3 268//3
f 268//3 266//3 272//3
f 266//3 264//3 272//3
f 264//3 262//3 257//3
f 262//3 260//3 257//3
f 260//3 258//3 257//3
f 257//3 256//3 301//3
f 256//3 253//3 234//3
f 301//3 256//3 234//3
f 253//3 251//3 247//3
f 247//3 246//3 245//3
f 245//3 244//3 247//3
f 244//3 241//3 247//3
f 241//3 237//3 247//3
f 304//3 301//3 312//3
f 289//3 285//3 297//3
f 285//3 281//3 297//3
f 277//3 272//3 257//3
f 319//3 312//3 301//3
f 248//10 243//10 245//10
f 249//80 248//80 246//80
f 250//12 249//12 247//12
f 252//13 250//13 251//13
f 254//14 252//14 253//14
f 255//1 254//1 256//1
f 257//15 258//15 259//15
f 261//16 259//16 258//16
f 260//17 262//17 263//17
f 262//18 264//18 265//18
f 264//159 266//159 267//159
f 266//20 268//20 269//20
f 271//21 269//21 268//21
f 274//22 271//22 270//22
f 275//23 274//23 272//23
f 273//24 277//24 276//24
f 278//25 276//25 277//25
f 279//46 281//46 280//46
f 282//153 280//153 281//153
f 284//44 282//44 283//44
f 285//43 287//43 286//43
f 288//42 286//42 287//42
f 290//160 288//160 289//160
f 292//40 290//40 291//40
f 294//39 292//39 293//39
f 296//83 294//83 295//83
f 297//37 300//37 298//37
f 298//36 300//36 301//36
f 301//35 302//35 303//35
f 302//84 304//84 305//84
f 304//33 306//33 307//33
f 306//32 308//32 309//32
f 308//161 310//161 311//161
f 310//30 312//30 313//30
f 312//29 314//29 315//29
f 314//28 316//28 317//28
f 316//27 318//27 320//27
f 318//26 319//26 235//26
f 323//85 321//85 322//85
f 321//86 325//86 322//86
f 325//86 327//86 322//86
f 324//1 321//1 323//1
f 321//1 324//1 326//1
f 326//136 330//136 327//136
f 327//162 329//162 328//162
f 330//90 326//90 332//90
f 326//90 324//90 332//90
f 327//68 330//68 331//68
f 331//91 332//91 322//91
f 335//36 322//36 332//36
f 336//36 408//36 335//36
f 323//1 340//1 338//1
f 344//1 341//1 338//1
f 346//1 342//1 341//1
f 345//163 347//163 346//163
f 408//144 345//144 344//144
f 346//1 348//1 351//1
f 347//98 349//98 348//98
f 349//164 356//164 350//164
f 351//1 348//1 350//1
f 356//36 349//36 354//36
f 347//36 343//36 354//36
f 356//36 353//36 355//36
f 359//105 350//105 356//105
f 358//36 357//36 355//36
f 357//106 358//106 360//106
f 360//1 362//1 361//1
f 350//1 359//1 361//1
f 364//36 365//36 358//36
f 367//6 364//6 363//6
f 366//36 371//36 365//36
f 369//1 367//1 362//1
f 365//111 371//111 370//111
f 369//3 360//3 358//3
f 371//112 374//112 373//112
f 374//165 377//165 376//165
f 377//114 383//114 378//114
f 383//36 382//36 381//36
f 383//36 377//36 384//36
f 384//36 377//36 374//36
f 374//36 371//36 366//36
f 383//149 386//149 388//149
f 389//139 388//139 386//139
f 386//36 381//36 391//36
f 394//36 387//36 391//36
f 395//36 396//36 394//36
f 398//126 400//126 396//126
f 397//127 405//127 395//127
f 405//127 399//127 395//127
f 401//36 400//36 398//36
f 400//129 401//129 396//129
f 401//129 402//129 396//129
f 405//166 402//166 401//166
f 404//132 402//132 401//132
f 402//1 405//1 397//1
f 394//133 396//133 406//133
f 387//134 394//134 407//134
f 347//36 345//36 339//36
f 345//36 408//36 336//36
f 335//135 408//135 340//135
f 411//85 409//85 410//85
f 409//86 414//86 410//86
f 414//86 416//86 410//86
f 414//1 409//1 412//1
f 419//87 416//87 414//87
f 416//137 417//137 418//137
f 421//90 420//90 419//90
f 419//90 415//90 421//90
f 416//36 419//36 420//36
f 420//91 421//91 410//91
f 421//92 412//92 413//92
f 424//36 410//36 421//36
f 425//36 426//36 424//36
f 423//93 413//93 428//93
f 427//36 432//36 426//36
f 427//94 425//94 428//94
f 426//144 432//144 431//144
f 424//135 426//135 430//135
f 432//163 437//163 434//163
f 435//98 434//98 437//98
f 437//36 432//36 427//36
f 437//36 439//36 440//36
f 427//95 429//95 433//95
f 439//103 433//103 436//103
f 442//36 438//36 440//36
f 440//102 436//102 444//102
f 443//36 448//36 442//36
f 443//104 441//104 444//104
f 442//105 448//105 447//105
f 438//164 442//164 446//164
f 448//106 452//106 450//106
f 450//3 452//3 453//3
f 452//36 448//36 443//36
f 455//36 453//36 452//36
f 443//107 445//107 449//107
f 455//6 454//6 449//6
f 457//109 455//109 456//109
f 457//36 458//36 453//36
f 464//36 458//36 457//36
f 459//120 457//120 460//120
f 458//112 464//112 463//112
f 453//111 458//111 462//111
f 464//165 469//165 466//165
f 467//114 466//114 469//114
f 471//36 469//36 464//36
f 470//36 469//36 471//36
f 459//118 461//118 465//118
f 471//117 465//117 468//117
f 473//36 474//36 470//36
f 472//116 468//116 476//116
f 475//36 480//36 474//36
f 475//123 473//123 476//123
f 474//122 480//122 479//122
f 470//149 474//149 478//149
f 480//134 485//134 482//134
f 483//133 482//133 485//133
f 485//36 480//36 475//36
f 485//36 487//36 488//36
f 475//124 477//124 481//124
f 487//125 481//125 484//125
f 489//126 490//126 486//126
f 493//127 491//127 488//127
f 491//127 489//127 488//127
f 489//36 491//36 492//36
f 496//166 492//166 491//166
f 495//141 492//141 496//141
f 492//129 496//129 486//129
f 496//129 483//129 486//129
f 483//167 496//167 493//167
f 542//3 498//3 497//3
f 500//106 497//106 498//106
f 502//105 500//105 501//105
f 503//143 502//143 504//143
f 519//1 521//1 520//1
f 522//1 517//1 523//1
f 523//1 517//1 528//1
f 517//1 515//1 528//1
f 519//1 522//1 521//1
f 517//89 522//89 519//89
f 510//1 506//1 511//1
f 511//1 506//1 515//1
f 506//1 510//1 508//1
f 504//1 506//1 505//1
f 498//1 506//1 501//1
f 501//1 506//1 504//1
f 541//1 529//1 542//1
f 542//1 528//1 498//1
f 529//1 528//1 542//1
f 537//1 541//1 540//1
f 531//1 529//1 535//1
f 535//1 529//1 537//1
f 529//1 531//1 530//1
f 515//1 498//1 528//1
f 537//1 529//1 541//1
f 507//98 503//98 505//98
f 509//163 507//163 506//163
f 508//144 510//144 512//144
f 513//135 512//135 510//135
f 514//85 513//85 511//85
f 514//145 515//145 517//145
f 519//146 518//146 516//146
f 525//147 524//147 522//147
f 523//148 528//148 526//148
f 528//151 529//151 527//151
f 532//134 527//134 529//134
f 530//139 531//139 533//139
f 531//121 535//121 534//121
f 536//114 534//114 535//114
f 538//150 536//150 537//150
f 540//112 541//112 539//112
f 499//168 539//168 541//168
f 588//3 544//3 543//3
f 546//106 543//106 544//106
f 548//105 546//105 547//105
f 550//143 548//143 549//143
f 552//98 550//98 551//98
f 554//163 552//163 553//163
f 556//144 554//144 555//144
f 558//135 556//135 557//135
f 560//85 558//85 559//85
f 563//169 562//169 560//169
f 562//170 563//170 565//170
f 568//1 567//1 566//1
f 565//89 563//89 569//89
f 563//1 561//1 573//1
f 568//1 566//1 565//1
f 573//1 569//1 563//1
f 569//89 568//89 565//89
f 577//1 576//1 579//1
f 576//1 573//1 579//1
f 579//1 578//1 577//1
f 585//1 583//1 579//1
f 588//1 587//1 579//1
f 587//1 585//1 579//1
f 547//1 544//1 559//1
f 544//1 588//1 561//1
f 559//1 544//1 561//1
f 551//1 549//1 547//1
f 555//1 553//1 559//1
f 553//1 551//1 559//1
f 559//1 557//1 555//1
f 573//1 561//1 588//1
f 551//1 547//1 559//1
f 571//147 570//147 568//147
f 569//148 573//148 572//148
f 574//133 572//133 573//133
f 576//134 577//134 575//134
f 580//139 575//139 577//139
f 578//121 579//121 581//121
f 579//114 583//114 582//114
f 584//150 582//150 583//150
f 586//112 584//112 585//112
f 545//168 586//168 587//168
